<svg width="272" height="59" viewBox="0 0 272 59" fill="none" xmlns="http://www.w3.org/2000/svg">
<path d="M27.8349 47V39.008H9.33091V0.919997H0.978906V47H27.8349ZM61.5568 41.24V16.112L55.7968 10.352H38.6608L32.9008 16.112V41.24L38.6608 47H55.7968L61.5568 41.24ZM53.2048 39.008H41.2528V18.344H53.2048V39.008ZM95.6162 47V39.008H77.1122V0.919997H68.7602V47H95.6162ZM129.338 41.24V16.112L123.578 10.352H106.442L100.682 16.112V41.24L106.442 47H123.578L129.338 41.24ZM120.986 39.008H109.034V18.344H120.986V39.008ZM156.845 14.528L152.669 10.352H142.301L136.541 16.112V37.64L142.301 43.4H152.669L156.845 39.224V50.816H136.901V52.688L142.661 58.448H159.437L165.197 52.688V10.352H163.469L156.845 14.528ZM156.845 35.552H144.893V18.344H156.845V35.552ZM182.193 47V37.568H173.121V47H182.193ZM235.48 16.112L229.72 10.352H221.152L216.184 15.32L211.216 10.352H202.648L198.472 14.528L191.992 10.352H190.12V47H198.544L198.472 18.344H208.624V47H216.976V18.344H227.128V47H235.48V16.112ZM271.369 41.24V39.368H251.065V32.816H265.609L271.369 27.056V16.112L265.609 10.352H248.473L242.713 16.112V41.24L248.473 47H265.609L271.369 41.24ZM263.017 25.184H251.065V18.344H263.017V25.184Z" fill="white"/>
</svg>
