<svg width="377" height="80" viewBox="0 0 377 80" fill="none" xmlns="http://www.w3.org/2000/svg">
<path d="M37.7707 64V52.9H12.0707V-4.52995e-06H0.470703V64H37.7707ZM84.6066 56V21.1L76.6066 13.1H52.8066L44.8066 21.1V56L52.8066 64H76.6066L84.6066 56ZM73.0066 52.9H56.4066V24.2H73.0066V52.9ZM131.911 64V52.9H106.211V-4.52995e-06H94.6113V64H131.911ZM178.747 56V21.1L170.747 13.1H146.947L138.947 21.1V56L146.947 64H170.747L178.747 56ZM167.147 52.9H150.547V24.2H167.147V52.9ZM216.952 18.9L211.152 13.1H196.752L188.752 21.1V51L196.752 59H211.152L216.952 53.2V69.3H189.252V71.9L197.252 79.9H220.552L228.552 71.9V13.1H226.152L216.952 18.9ZM216.952 48.1H200.352V24.2H216.952V48.1ZM252.157 64V50.9H239.557V64H252.157ZM326.166 21.1L318.166 13.1H306.266L299.366 20L292.466 13.1H280.566L274.766 18.9L265.766 13.1H263.166V64H274.866L274.766 24.2H288.866V64H300.466V24.2H314.566V64H326.166V21.1ZM376.013 56V53.4H347.813V44.3H368.013L376.013 36.3V21.1L368.013 13.1H344.213L336.213 21.1V56L344.213 64H368.013L376.013 56ZM364.413 33.7H347.813V24.2H364.413V33.7Z" fill="white"/>
</svg>
